<?xml version="1.0" standalone="no"?>
<!DOCTYPE svg PUBLIC "-//W3C//DTD SVG 20010904//EN"
 "http://www.w3.org/TR/2001/REC-SVG-20010904/DTD/svg10.dtd">
<svg version="1.0" xmlns="http://www.w3.org/2000/svg"
 width="297.000000pt" height="63.000000pt" viewBox="0 0 297.000000 63.000000"
 preserveAspectRatio="xMidYMid meet">

<g transform="translate(0.000000,63.000000) scale(0.100000,-0.100000)"
fill="#000000" stroke="none">
<path d="M610 341 c0 -313 -1 -309 54 -295 18 4 23 16 34 80 6 41 20 93 31
117 l19 42 1 -78 c1 -88 19 -142 53 -158 29 -13 72 2 90 30 12 19 13 19 45 -9
42 -38 94 -48 129 -26 32 22 64 74 64 107 0 14 9 34 19 43 19 17 20 17 26 -21
14 -83 18 -95 42 -123 40 -48 85 -34 123 38 l12 24 15 -22 c18 -26 87 -59 121
-60 32 0 80 53 88 98 4 20 18 52 32 69 l24 33 64 -57 c70 -62 82 -93 37 -93
-16 0 -39 9 -53 20 -32 25 -50 25 -50 -1 0 -30 62 -53 123 -45 99 11 102 47
12 131 -52 48 -63 65 -59 82 10 37 31 48 67 35 38 -14 57 -2 57 38 0 33 -26
43 -80 31 -65 -15 -99 -39 -125 -91 -30 -59 -45 -64 -45 -15 0 115 -125 204
-178 128 -27 -41 -40 -78 -57 -165 -19 -103 -39 -148 -63 -148 -29 0 -32 17
-32 170 l0 139 45 7 c25 3 54 4 65 1 11 -3 20 -1 20 4 0 15 -38 29 -79 29
l-41 0 0 64 c0 67 -6 76 -51 76 -16 0 -19 -7 -19 -54 0 -77 -5 -86 -50 -86
-65 0 -62 -26 4 -39 28 -6 31 -11 34 -48 3 -44 -20 -113 -37 -113 -6 0 -11 11
-11 24 0 54 -15 91 -52 128 -48 48 -95 52 -127 12 -30 -38 -61 -147 -61 -214
0 -60 -18 -90 -53 -90 -24 0 -31 40 -23 151 6 91 4 101 -14 119 -42 42 -65 19
-100 -98 -12 -40 -24 -71 -26 -70 -6 6 16 400 22 410 9 15 -16 28 -53 28 l-33
0 0 -289z m455 -1 c21 -40 20 -136 -1 -144 -89 -34 -131 48 -74 142 25 41 54
42 75 2z m444 16 c6 -8 17 -42 23 -77 10 -56 9 -64 -8 -76 -22 -16 -76 -17
-92 -1 -17 17 -15 93 3 128 21 40 53 51 74 26z m-468 -211 c46 8 51 -4 14 -40
-47 -47 -106 -18 -96 48 0 4 10 3 22 -3 12 -7 37 -9 60 -5z m450 0 c31 5 39 4
39 -8 0 -19 -47 -57 -71 -57 -25 0 -49 27 -49 56 0 22 2 23 21 14 12 -7 37 -9
60 -5z"/>
<path d="M1880 341 c0 -313 -1 -309 54 -295 18 4 23 16 34 80 6 41 20 93 31
117 l19 42 1 -70 c1 -90 16 -141 46 -161 28 -18 59 -12 93 19 17 16 22 17 22
5 0 -21 30 -45 68 -53 40 -8 67 11 89 65 l15 34 13 -32 c16 -36 52 -50 84 -33
31 17 60 82 73 166 10 62 15 75 30 75 16 0 18 -10 18 -92 0 -108 18 -157 64
-173 25 -8 31 -6 56 22 l29 32 31 -29 c26 -25 41 -30 80 -30 71 0 123 49 132
125 4 43 -15 44 -25 1 -19 -80 -94 -113 -136 -60 -28 36 -27 64 2 64 53 0 97
60 97 135 0 113 -127 115 -170 1 -6 -15 -15 -60 -20 -98 -12 -82 -34 -131 -58
-126 -32 6 -34 95 -7 225 8 34 6 35 -85 46 -8 1 -16 14 -18 30 -3 27 -16 34
-38 19 -7 -4 -13 -54 -16 -128 -3 -93 -8 -128 -21 -148 -38 -58 -63 -20 -55
85 3 45 1 62 -9 66 -8 3 -13 22 -13 49 0 53 -18 73 -79 94 -38 12 -46 12 -69
-1 -44 -24 -63 -71 -75 -182 -12 -106 -25 -137 -58 -137 -27 0 -33 37 -25 151
6 91 4 101 -14 119 -42 42 -59 26 -96 -88 -14 -46 -27 -82 -29 -80 -5 6 14
380 20 400 9 25 -8 38 -52 38 l-33 0 0 -289z m447 -3 c15 -19 24 -66 14 -72
-4 -3 -11 -36 -15 -74 -8 -77 -35 -132 -66 -132 -26 0 -35 35 -34 125 1 91 31
165 67 165 14 0 29 -6 34 -12z m535 -47 c-4 -48 -29 -91 -54 -91 -18 0 -20 4
-15 40 7 51 33 92 55 88 13 -3 16 -12 14 -37z"/>
<path d="M232 591 c-90 -23 -178 -67 -205 -103 -35 -47 -22 -97 29 -112 27 -8
37 14 23 51 -13 34 16 67 89 99 64 29 87 31 77 7 -4 -10 -10 -126 -13 -259 -4
-217 -3 -242 12 -257 10 -9 27 -17 39 -17 21 0 22 3 19 95 -2 52 -1 95 2 95 3
0 17 -5 30 -12 61 -27 176 57 204 150 32 105 3 215 -66 255 -48 28 -149 31
-240 8z m196 -43 c69 -21 84 -103 37 -202 -37 -79 -86 -128 -122 -124 l-28 3
0 153 c0 137 -2 155 -18 167 -18 13 -18 13 0 18 23 6 88 -2 131 -15z"/>
</g>
</svg>
