<svg xmlns="http://www.w3.org/2000/svg" width="165.344" height="24.437" viewBox="0 0 165.344 24.437">
  <defs>
    <style>
      .cls-1 {
        fill: #090909;
        fill-rule: evenodd;
      }
    </style>
  </defs>
  <path id="logo.svg" class="cls-1" d="M155.285,27.528a1.887,1.887,0,0,0,1.8,1.093,9.476,9.476,0,0,0,4.267-1.076,24.653,24.653,0,0,0,4.938-3.509V27q-5.433,3.915-10.546,3.915A3.152,3.152,0,0,1,152.9,29.38a6.367,6.367,0,0,1-.969-3.46v1.114q-4.479,3.845-7.124,3.844a1.906,1.906,0,0,1-1.587-.776,3.192,3.192,0,0,1-.6-2.01,9.645,9.645,0,0,1,.917-3.421,9.768,9.768,0,0,0,.917-3,2.469,2.469,0,0,0-1.834-2.328,19.315,19.315,0,0,1-3.985,5.114q-0.843.812-2.487,2.314v0.245q-4.092,3.754-6.419,3.754a1.446,1.446,0,0,1-1.464-.82,4.688,4.688,0,0,1-.37-1.937V27.422a16.664,16.664,0,0,1-2.8,2.61,3.908,3.908,0,0,1-2.169.741,3.456,3.456,0,0,1-2.768-1.5,5.552,5.552,0,0,1-1.182-3.544,9.782,9.782,0,0,1,2.4-6.6,6.38,6.38,0,0,1,4.832-2.575,3.606,3.606,0,0,1,1.922.529,5.523,5.523,0,0,1,1.64,1.693l0.6-2.222h2.927L131.461,24a18.946,18.946,0,0,0-.423,1.87,9.369,9.369,0,0,0-.176,1.38q0,0.665.423,0.664a3.872,3.872,0,0,0,1.851-1.031,29.283,29.283,0,0,0,2.576-2.391V24.248q1.974-1.939,2.786-2.857a14.844,14.844,0,0,0,2.363-3.456,3.816,3.816,0,0,1-.494-1.587,5.079,5.079,0,0,1,.229-1.71,1.042,1.042,0,0,1,1.111-.617,4.488,4.488,0,0,1,1.8.212,1.083,1.083,0,0,1,.353.988,6.81,6.81,0,0,1-.529,2.187,14.869,14.869,0,0,1,2.433,1.023,3.244,3.244,0,0,1,1.552,3.033,7.873,7.873,0,0,1-.494,2.469,28.788,28.788,0,0,0-1.128,3.633,0.515,0.515,0,0,0,.564.6q1.551,0,5.678-4.126v1.845a10.887,10.887,0,0,1,2.292-6.8,6.6,6.6,0,0,1,5.29-2.98q2.822,0,2.822,2.68a5.156,5.156,0,0,1-2.469,4.2,21.351,21.351,0,0,1-4.232,2.151l-0.741.317v0.141A4.177,4.177,0,0,0,155.285,27.528Zm-27.6-8.323a1.873,1.873,0,0,0-1.2-.459,3.794,3.794,0,0,0-3.051,1.922,7.306,7.306,0,0,0-1.358,4.32,5.236,5.236,0,0,0,.5,2.451,1.474,1.474,0,0,0,1.307.935,4.02,4.02,0,0,0,2.546-1.551q1.025-1.162,2.05-2.361l0.8-3.53A17.72,17.72,0,0,0,127.688,19.2Zm31.053,2.028a2.921,2.921,0,0,0,1.3-2.134,0.7,0.7,0,0,0-.811-0.776,3.26,3.26,0,0,0-2.363,1.428,7.694,7.694,0,0,0-1.622,3.368A12.076,12.076,0,0,0,158.741,21.233Zm-46.167,9.611a2.206,2.206,0,0,1-1.763-.917,3.475,3.475,0,0,1-.741-2.257,12.565,12.565,0,0,1,.952-3.985,12.572,12.572,0,0,0,.953-3.6,0.6,0.6,0,0,0-.6-0.741,4.989,4.989,0,0,0-2.68,1.34,28.021,28.021,0,0,0-3.809,3.844q-0.106.918-.141,1.446t-0.036,1.517l0.106,3.209h-2.751q-0.034-.212-0.229-2.451t-0.194-2.345a32.731,32.731,0,0,1,1.023-7.124,33.776,33.776,0,0,1,2.927-8.288q2.117-3.985,4.514-3.985a2.309,2.309,0,0,1,1.905.952,3.846,3.846,0,0,1,.741,2.434q0,3.527-3.774,8.464a18.447,18.447,0,0,1,2.345-1.323,3.716,3.716,0,0,1,1.429-.3,1.694,1.694,0,0,1,1.481.776,3.926,3.926,0,0,1,.529,2.222,12.953,12.953,0,0,1-.917,3.985,12.847,12.847,0,0,0-.917,3.844q0,0.776.564,0.776,1.694,0,5.326-4.3v3a14.859,14.859,0,0,1-3.263,2.786A5.9,5.9,0,0,1,112.574,30.843Zm-3.315-16.206a10.169,10.169,0,0,0,1.3-4.5q0-1.3-.7-1.3-1.164,0-2.734,4.25A37.465,37.465,0,0,0,105.062,21,45.058,45.058,0,0,0,109.259,14.637ZM93.312,20.474a18.608,18.608,0,0,1-2.363,6.842,6.792,6.792,0,0,1-5.96,3.456,5.407,5.407,0,0,1-3.774-1.411,3.025,3.025,0,0,1-1.234-1.94A2.109,2.109,0,0,1,80.7,26.1a2.021,2.021,0,0,1,1.076-.758,3.661,3.661,0,0,1,1.2,1.552,2.66,2.66,0,0,0,2.292,1.552,3.686,3.686,0,0,0,3.033-1.94A14.879,14.879,0,0,0,90.279,21a7.4,7.4,0,0,1-4.832-1.552,4.841,4.841,0,0,1-1.9-3.915A5.016,5.016,0,0,1,84,13.174a2.018,2.018,0,0,1,1.9-1.093q1.022,0,1.023.564a9.167,9.167,0,0,1-.529,1.763,3.594,3.594,0,0,0-.247,1.234,2.752,2.752,0,0,0,1.076,2.222A4.224,4.224,0,0,0,90,18.746h0.564q0.775-4.3,1.058-5.467a11.264,11.264,0,0,1,2.4-4.8,6.313,6.313,0,0,1,4.232-2.01,2.83,2.83,0,0,1,2.31,1.005,4.29,4.29,0,0,1,.829,2.8,10.089,10.089,0,0,1-2.328,6.348A10.519,10.519,0,0,1,93.312,20.474ZM97.686,9.012a2.408,2.408,0,0,0-2.01,1.3q-1.27,1.9-1.869,6.525l-0.141,1.234a9.112,9.112,0,0,0,3.58-3.174,7.8,7.8,0,0,0,1.464-4.444Q98.708,9.012,97.686,9.012ZM76.824,27.986a4,4,0,0,1-1.781-.388,6.186,6.186,0,0,1-1.675-1.3q-2.539,4.549-6.525,4.55a4.219,4.219,0,0,1-3.315-1.34,4.6,4.6,0,0,1-1.039-2.148,17.214,17.214,0,0,1-3.962,2.78,5.85,5.85,0,0,1-2.434.673,2.39,2.39,0,0,1-2.134-1.4,6.307,6.307,0,0,1-.711-2.344,4.658,4.658,0,0,1-2.887.924A4,4,0,0,1,48.58,27.6a6.187,6.187,0,0,1-1.675-1.3q-2.539,4.549-6.525,4.55a4.219,4.219,0,0,1-3.315-1.34,5.465,5.465,0,0,1-1.2-3.774,9.418,9.418,0,0,1,2.31-6.507A7.756,7.756,0,0,1,44.26,16.63l-0.141,2.01a5.456,5.456,0,0,0-3.879,2.134A7.742,7.742,0,0,0,39,25.341q0,3.21,2.081,3.209a3.392,3.392,0,0,0,2.522-1.428,7.034,7.034,0,0,0,1.569-3.368,9.671,9.671,0,0,1-.264-1.093,5.241,5.241,0,0,1-.053-0.776,13.511,13.511,0,0,1,.176-2.081,5.251,5.251,0,0,1,.67-1.94h2.363a6.5,6.5,0,0,1,.212,1.217q0.035,0.547.035,0.864a13.409,13.409,0,0,1-.635,3.985q1.693,1.728,2.822,1.728a3.817,3.817,0,0,0,2.733-1.564c0.028-.3.062-0.587,0.107-0.843q0.176-.994.846-3.406l0.282-1.064-1.093.176,0.141-1.363a0.537,0.537,0,0,1,.511-0.372q0.476-.1,1.076-0.2L57.72,9.153l2.968,0-2.481,7.59,3.248-.011-0.423,2.046h-3.6l-0.176.6Q56.763,21.2,56.516,22.6a14.454,14.454,0,0,0-.247,2.469q0,3.057,1.058,3.056a4.31,4.31,0,0,0,1.9-.925A22.676,22.676,0,0,0,62.4,24.479a9.08,9.08,0,0,1,2.239-5.256,7.756,7.756,0,0,1,6.084-2.592l-0.141,2.01a5.457,5.457,0,0,0-3.88,2.134,7.742,7.742,0,0,0-1.234,4.567q0,3.21,2.081,3.209a3.392,3.392,0,0,0,2.522-1.428,7.035,7.035,0,0,0,1.569-3.368,9.693,9.693,0,0,1-.264-1.093,5.241,5.241,0,0,1-.053-0.776A13.511,13.511,0,0,1,71.5,19.8a5.251,5.251,0,0,1,.67-1.94h2.363a6.5,6.5,0,0,1,.212,1.217q0.035,0.547.035,0.864a13.409,13.409,0,0,1-.635,3.985q1.693,1.728,2.821,1.728a3.868,3.868,0,0,0,2.786-1.622v3A4.653,4.653,0,0,1,76.824,27.986ZM29.182,30.843a2.206,2.206,0,0,1-1.764-.917,3.476,3.476,0,0,1-.741-2.257,12.544,12.544,0,0,1,.952-3.985,12.567,12.567,0,0,0,.952-3.6,0.6,0.6,0,0,0-.6-0.741,4.99,4.99,0,0,0-2.68,1.34,28.032,28.032,0,0,0-3.809,3.844q-0.106.918-.141,1.446t-0.035,1.517L21.423,30.7H18.672q-0.036-.212-0.229-2.451t-0.194-2.345a32.716,32.716,0,0,1,1.023-7.124A33.771,33.771,0,0,1,22.2,10.493q2.116-3.985,4.514-3.985a2.308,2.308,0,0,1,1.9.952,3.847,3.847,0,0,1,.741,2.434q0,3.527-3.774,8.464a18.445,18.445,0,0,1,2.345-1.323,3.713,3.713,0,0,1,1.428-.3,1.693,1.693,0,0,1,1.481.776,3.929,3.929,0,0,1,.529,2.222,12.95,12.95,0,0,1-.917,3.985,12.857,12.857,0,0,0-.917,3.844q0,0.776.564,0.776,1.693,0,5.326-4.3v3a14.87,14.87,0,0,1-3.262,2.786A5.9,5.9,0,0,1,29.182,30.843ZM25.867,14.637a10.174,10.174,0,0,0,1.305-4.5q0-1.3-.705-1.3-1.164,0-2.733,4.25A37.436,37.436,0,0,0,21.67,21,45.1,45.1,0,0,0,25.867,14.637ZM11.741,22.626a4.918,4.918,0,0,1-1.217-.106A10.631,10.631,0,0,1,9.1,21.885Q8.567,24,8.073,26.082q-1.481,4.727-4.761,4.726a1.358,1.358,0,0,1-1.076-.353,4.232,4.232,0,0,1-.582-1.587l-0.176-.882a7.351,7.351,0,0,0,1.27.176A2.286,2.286,0,0,0,4.74,26.534a32.988,32.988,0,0,0,1.711-6.127q0.741-3.4,1.164-4.993A29.835,29.835,0,0,1,9.2,10.952h2.292a4.789,4.789,0,0,0,.564.141q-0.494,1.2-.987,2.768t-1.2,4.532L9.66,19.31a3.51,3.51,0,0,0,2.151.811,3.778,3.778,0,0,0,3.086-1.71,6.582,6.582,0,0,0,1.287-4.074A5.1,5.1,0,0,0,14.6,10.423a5.9,5.9,0,0,0-4.2-1.481,8.318,8.318,0,0,0-5.079,1.587,4,4,0,0,0-1.975,3.139A1.441,1.441,0,0,0,4.123,14.9a1.577,1.577,0,0,1,.776.705,1.313,1.313,0,0,1-.282.847,0.9,0.9,0,0,1-.741.353,2.671,2.671,0,0,1-2.046-.988,3.335,3.335,0,0,1-.882-2.292,6.029,6.029,0,0,1,2.786-4.9,10.713,10.713,0,0,1,6.6-2.081,9.111,9.111,0,0,1,6.313,2.116,7.246,7.246,0,0,1,2.363,5.678,8.573,8.573,0,0,1-2.151,5.819A6.576,6.576,0,0,1,11.741,22.626Z" transform="translate(-0.938 -6.469)"/>
</svg>
